# xmcd CD database file
#
# Track frame offsets:
#	150
#	19267
#	36243
#	58051
#	77742
#	98645
#	116589
#	133141
#	150884
#	170759
#	187030
#	213987
#
# Disc length: 3137 seconds
#
# Revision: 0
# Processed by: cddbd v1.5.2PL0 Copyright (c) Steve Scherf et al.
# Submitted via: CDex 1.70beta2
#
DISCID=a00c3f0c
DTITLE=All That Jazz - Happy Wedding！
DYEAR=2012
DGENRE=Jazz
TTITLE0=結婚行進曲 ～しあわせのリズム
TTITLE1=My Heart Will Go On
TTITLE2=Butterfly
TTITLE3=Everything
TTITLE4=Can You Celebrate？
TTITLE5=Someday My Prince Will Come ～いつか王子様が
TTITLE6=Story
TTITLE7=I Was Born To Love You
TTITLE8=たしかなこと
TTITLE9=I Don’t Want To Miss A Thing
TTITLE10=未来予想図II
TTITLE11=Winding Road
EXTD=YEAR: 2012
EXTT0=
EXTT1=
EXTT2=
EXTT3=
EXTT4=
EXTT5=
EXTT6=
EXTT7=
EXTT8=
EXTT9=
EXTT10=
EXTT11=
PLAYORDER=
